Coordinates
version=1
nRows=19
nColumns=33
inDegrees=yes

Units are S.I. units (second, meters, Newtons, ...)
Angles are in degrees.

endheader
time	ground_thorax_rot_x	ground_thorax_rot_y	ground_thorax_rot_z	ground_thorax_tx	ground_thorax_ty	ground_thorax_tz	clav_prot_r	clav_elev_r	scapula_abduction_r	scapula_elevation_r	scapula_upward_rot_r	scapula_winging_r	shoulder_elv_r	plane_of_elev_r	axial_rot_r	elbow_flexion_r	pro_sup_r	wrist_flex_r	wrist_dev_r	clav_prot_l	clav_elev_l	scapula_abduction_l	scapula_elevation_l	scapula_upward_rot_l	scapula_winging_l	shoulder_elv_l	plane_of_elev_l	axial_rot_l	elbow_flexion_l	pro_sup_l	wrist_flex_l	wrist_dev_l
      7.86000000	    -40.58390513	     -7.24371289	      4.64137818	   -202.15113141	    888.33887696	     -6.28622112	     10.40161844	    -45.00000000	     36.97785952	    -45.00000000	    -40.77093591	   2059.68729175	  -2987.92384086	    148.44723033	    -96.83186027	    736.62470070	     59.06017843	     18.58102014	      4.78757197	     15.31012587	     38.30261139	    -38.67269558	    -45.00000000	    -45.00000000	    446.65309532	  -2446.91638175	     20.65375509	    -43.33078648	   1093.10911730	     48.07355487	      6.27892841	    -23.32324601
      7.87000000	    -40.55655367	     -7.73297394	      5.09470986	   -200.48822396	    890.07556897	     -6.26429826	     10.59755327	    -45.00000000	     37.23571764	    -45.00000000	    -40.63770938	   2059.57312536	  -2987.67916717	    148.41179533	    -96.89035832	    736.74438430	     60.09299961	     18.42185513	      4.57927495	     14.03068193	     37.89581385	    -38.43171322	    -45.00000000	    -45.00000000	    446.12587570	  -2446.22701884	     20.11858516	    -41.98668752	   1093.34158623	     48.43817119	      5.96896806	    -23.26046579
      7.88000000	    -40.58392255	     -7.54130369	      4.87655640	   -198.73241112	    891.84955465	     -6.23872601	     10.36168372	    -45.00000000	     37.35752268	    -45.00000000	    -39.94117893	   2059.78125965	  -2987.34298942	    148.39252514	    -97.34226664	    736.92067299	     61.08902863	     18.47753880	      4.50891514	     14.47055594	     38.11920956	    -38.74209245	    -45.00000000	    -45.00000000	    446.38188601	  -2446.18010669	     20.51612024	    -41.19426578	   1093.35266735	     48.81795109	      5.94052077	    -23.28565520
      7.89000000	    -40.61549980	     -6.78836394	      4.23985845	   -196.88318808	    893.63165598	     -6.20931619	     10.35360835	    -45.00000000	     37.86517879	    -45.00000000	    -38.40201268	   2059.52528828	  -2987.44717076	    148.23473090	    -97.51365451	    737.05433040	     62.44105005	     18.50765798	      4.45680604	     15.30870758	     38.23728533	    -39.59397666	    -45.00000000	    -45.00000000	    446.96244524	  -2446.51645000	     21.24344348	    -41.02573579	   1093.33230368	     49.30443978	      5.96096707	    -23.32825330
      7.90000000	    -40.60045673	     -6.68766057	      4.14838953	   -194.93670909	    895.39521641	     -6.17651875	     10.58633410	    -45.00000000	     38.11746062	    -45.00000000	    -37.62244807	   2059.36096124	  -2987.26174996	    148.01489770	    -97.66868746	    737.26500334	     63.50742041	     18.37247072	      4.26116837	     14.61163370	     38.17732850	    -39.73532553	    -45.00000000	    -44.98439201	    446.85976648	  -2446.12558006	     21.30421429	    -40.50220972	   1093.56494530	     49.57696664	      5.87296471	    -23.38124456
      7.91000000	    -40.64899732	     -6.61104474	      3.92386534	   -192.89474479	    897.10645667	     -6.14105490	     10.26476969	    -45.00000000	     38.56410726	    -45.00000000	    -36.39102776	   2059.53931715	  -2987.08052541	    148.18222552	    -97.84352281	    737.33806553	     64.75083654	     18.50283956	      4.26953446	     15.32118705	     38.47320563	    -40.06568576	    -45.00000000	    -44.74650854	    447.30440481	  -2446.28169683	     21.70229720	    -39.92654748	   1093.39802885	     49.80812529	      5.71885819	    -23.21295459
      7.92000000	    -40.71116654	     -6.40715117	      3.71548563	   -190.75057268	    898.73839177	     -6.10300737	     10.22223088	    -45.00000000	     38.89211809	    -45.00000000	    -35.30164645	   2059.53793143	  -2986.93710389	    148.16010784	    -98.01397326	    737.46840054	     65.93436289	     18.47806950	      4.16831279	     15.30964034	     38.63137432	    -40.31636304	    -45.00000000	    -44.15188112	    447.42921803	  -2446.23849784	     21.80075804	    -39.37001646	   1093.40404520	     49.90162273	      5.66479611	    -23.20558445
      7.93000000	    -40.76052641	     -6.23023657	      3.51840361	   -188.51025241	    900.25361188	     -6.06203256	     10.08524113	    -45.00000000	     39.17323708	    -45.00000000	    -34.12618963	   2059.59169375	  -2986.74216191	    148.16233139	    -98.15616891	    737.64762532	     67.16060742	     18.48777317	      4.07214209	     15.47153320	     38.84090957	    -40.54285151	    -45.00000000	    -43.48657169	    447.54591209	  -2446.18739367	     21.83943227	    -38.90486799	   1093.42863385	     49.82419099	      5.57017909	    -23.16810701
      7.94000000	    -40.84130030	     -5.97210026	      3.20080071	   -186.17027784	    901.62482405	     -6.01692410	     10.16613062	    -45.00000000	     39.50504969	    -45.00000000	    -33.24822138	   2059.58130901	  -2986.66685885	    147.93852134	    -98.55558742	    737.72377943	     68.17146916	     18.35517050	      3.93790393	     15.02460157	     38.89949839	    -40.66163664	    -45.00000000	    -42.69223983	    447.58988602	  -2446.05734122	     21.94996061	    -38.46295966	   1093.38978165	     49.64828230	      5.71057761	    -23.27803126
      7.95000000	    -40.92358011	     -5.84363888	      3.08388351	   -183.73194553	    902.82320194	     -5.96603003	      9.97261784	    -45.00000000	     39.76857674	    -45.00000000	    -32.02120615	   2059.64914110	  -2986.49201208	    148.00551263	    -98.77631741	    737.88314434	     69.28338178	     18.38560493	      3.85971145	     15.34848975	     39.14312620	    -40.97674006	    -45.00000000	    -42.04245967	    447.80359948	  -2446.12177372	     22.01834968	    -37.97187119	   1093.35152046	     49.23006370	      5.62895456	    -23.19189671
      7.96000000	    -41.00825946	     -5.67035803	      2.89926676	   -181.20329714	    903.82166199	     -5.90723158	      9.92570656	    -45.00000000	     40.08903118	    -45.00000000	    -31.05524539	   2059.69457514	  -2986.40741496	    147.92157449	    -99.11420843	    737.94324394	     70.30221195	     18.30920054	      3.76364310	     15.18525653	     39.26355640	    -41.13163402	    -45.00000000	    -41.36254540	    447.86027057	  -2446.07904164	     22.15927689	    -37.45916679	   1093.22202985	     48.68755054	      5.73989846	    -23.21291193
      7.97000000	    -41.11940994	     -5.47708178	      2.67071703	   -178.58594517	    904.60079505	     -5.83786809	      9.95716391	    -45.00000000	     40.29611252	    -45.00000000	    -30.17775673	   2059.72855860	  -2986.32285259	    147.67835046	    -99.48711676	    738.06779742	     71.21222930	     18.14354231	      3.61407085	     14.81892609	     39.29680812	    -41.27521490	    -45.00000000	    -40.61983865	    447.80241622	  -2445.93525147	     22.12190105	    -37.05279462	   1093.20926306	     48.00785177	      5.91648434	    -23.32140711
      7.98000000	    -41.25960831	     -5.30606569	      2.49939852	   -175.89150220	    905.14255629	     -5.75516409	      9.81704174	    -45.00000000	     40.56878099	    -45.00000000	    -29.06895819	   2059.83025589	  -2986.23681860	    147.67191542	    -99.90023002	    738.17789603	     72.16197150	     18.11828283	      3.53523460	     14.94913223	     39.53548275	    -41.53605149	    -45.00000000	    -39.84819876	    447.97682189	  -2446.02527217	     22.24367125	    -36.65996640	   1093.05520341	     47.08661161	      6.03414271	    -23.30440985
      7.99000000	    -41.38575762	     -5.22235386	      2.39540513	   -173.12525098	    905.43609994	     -5.65604772	      9.54656078	    -45.00000000	     40.87378924	    -45.00000000	    -27.70775686	   2059.98047955	  -2986.14405052	    147.83265019	   -100.14005659	    738.29802970	     73.23701856	     18.16917324	      3.48746110	     15.33719467	     39.83652720	    -41.85063456	    -45.00000000	    -39.20749344	    448.15159475	  -2446.23688834	     22.32845803	    -36.12085970	   1092.85408111	     45.74484253	      6.12596333	    -23.23171665
      8.00000000	    -41.51949926	     -5.10616310	      2.28379811	   -170.28906970	    905.47490371	     -5.53722646	      9.39376106	    -45.00000000	     41.12809777	    -45.00000000	    -26.54837036	   2060.09665300	  -2986.07232410	    147.85491228	   -100.39001683	    738.40951500	     74.30805167	     18.11313634	      3.40306275	     15.40145357	     40.03925362	    -42.03914039	    -45.00000000	    -38.54058572	    448.16478781	  -2446.27502460	     22.38391334	    -35.57199925	   1092.62532606	     44.07300841	      6.39228057	    -23.25649270
      8.01000000	    -41.67402812	     -4.94277216	      2.12058450	   -167.39594390	    905.25418569	     -5.39607773	      9.22741416	    -45.00000000	     41.39045787	    -45.00000000	    -25.32350401	   2060.19861434	  -2986.05582713	    147.89339475	   -100.68215977	    738.52356377	     75.37557163	     18.04573140	      3.32113666	     15.44667453	     40.29654320	    -42.30110443	    -45.00000000	    -37.70068616	    448.22619967	  -2446.41728370	     22.41281025	    -35.24235348	   1092.38671670	     42.02033149	      6.73264521	    -23.28657791
      8.02000000	    -41.81586297	     -4.77194205	      1.98106703	   -164.44441957	    904.77212608	     -5.22982668	      9.03755876	    -45.00000000	     41.57562741	    -45.00000000	    -24.10310684	   2060.30077070	  -2986.04302151	    147.92830695	   -100.92508814	    738.64363624	     76.48329729	     17.99099730	      3.24901879	     15.61650323	     40.53622478	    -42.56789866	    -45.00000000	    -37.02515985	    448.18265654	  -2446.52989111	     22.44599484	    -34.85693356	   1092.05718532	     39.46351768	      7.14831695	    -23.29390284
      8.03000000	    -41.98825393	     -4.73822890	      1.86670359	   -161.43780817	    904.02823515	     -5.03633781	      8.94051382	    -45.00000000	     41.85644935	    -45.00000000	    -23.17146739	   2060.44661657	  -2986.10350176	    147.91799856	   -101.24523216	    738.76185204	     77.48704557	     17.86944995	      3.16103527	     15.51083357	     40.70451606	    -42.72513399	    -45.00000000	    -36.30181814	    448.23112474	  -2446.72594498	     22.52159998	    -34.47556377	   1091.74777385	     36.75637017	      7.65429091	    -23.30704410
      8.04000000	    -42.13834059	     -4.47516825	      1.63071704	   -158.37721494	    903.02082664	     -4.81372430	      8.57811802	    -45.00000000	     41.96345052	    -45.00000000	    -21.69621141	   2060.59624949	  -2986.16332147	    147.99816809	   -101.22456500	    738.87794130	     78.81624196	     17.83685761	      3.11310260	     16.04038247	     40.95506556	    -43.05660245	    -45.00000000	    -35.63519023	    447.99445372	  -2446.77555710	     22.34534504	    -34.08590126	   1091.37342162	     32.70969616	      8.26404263	    -23.25685759
